<?xml version="1.0" encoding="utf-8"?>
<!-- Generator: Adobe Illustrator 16.0.0, SVG Export Plug-In . SVG Version: 6.00 Build 0)  -->
<!DOCTYPE svg PUBLIC "-//W3C//DTD SVG 1.1//EN" "http://www.w3.org/Graphics/SVG/1.1/DTD/svg11.dtd">
<svg version="1.1"
	 id="svg1" xmlns:cc="http://web.resource.org/cc/" xmlns:dc="http://purl.org/dc/elements/1.1/" xmlns:inkscape="http://www.inkscape.org/namespaces/inkscape" xmlns:rdf="http://www.w3.org/1999/02/22-rdf-syntax-ns#" xmlns:sodipodi="http://sodipodi.sourceforge.net/DTD/sodipodi-0.dtd" sodipodi:version="0.32" sodipodi:docname="start.svg" sodipodi:docbase="/home/kurumin/smb4k/DETSRV001/Sergio/inkscape" inkscape:version="0.40"
	 xmlns="http://www.w3.org/2000/svg" xmlns:xlink="http://www.w3.org/1999/xlink" x="0px" y="0px" width="595.275px"
	 height="841.89px" viewBox="0 0 595.275 841.89" enable-background="new 0 0 595.275 841.89" xml:space="preserve">
<sodipodi:namedview  bordercolor="#666666" borderopacity="1.0" id="base" inkscape:cx="295.60615" inkscape:cy="509.77809" inkscape:zoom="0.61664800" pagecolor="#ffffff" inkscape:window-y="0" inkscape:window-x="0" inkscape:window-width="1016" inkscape:pageopacity="0.0" inkscape:window-height="693" inkscape:current-layer="layer1" inkscape:pageshadow="2">
	</sodipodi:namedview>
<g id="layer1" inkscape:label="Layer 1" inkscape:groupmode="layer">
	<g>
		<g id="g4794_8_">
			
				<g id="path3551_9_" sodipodi:type="star" sodipodi:sides="5" sodipodi:r2="34.926189" sodipodi:r1="69.852379" sodipodi:cy="449.90344" sodipodi:cx="297.99036" sodipodi:arg2="1.1519173" sodipodi:arg1="0.52359878" inkscape:rounded="0.19000000" inkscape:randomized="0.0000000" inkscape:flatsided="false">
				<path opacity="0.2151" fill="#A9A9A9" d="M505.979,670.345c-31.576,18.482-123.915-105.213-160.259-109.223
					c-36.345-4.012-151.137,96.822-178.367,71.85c-27.23-24.973,59.228-151.793,51.513-188.189
					C211.151,408.386,80.723,327.777,95.47,293.859c14.747-33.917,160.52,11.398,192.095-7.085
					c31.576-18.483,65.76-169.137,102.104-165.125c36.344,4.011,39.979,158.838,67.209,183.812
					c27.23,24.973,178.784,12.473,186.5,48.869c7.715,36.396-135.812,86.769-150.559,120.687S537.556,651.863,505.979,670.345z"/>
				<path opacity="0.2" fill="none" stroke="#000000" stroke-width="1.2592" d="M505.979,670.345
					c-31.576,18.482-123.915-105.213-160.259-109.223c-36.345-4.012-151.137,96.822-178.367,71.85
					c-27.23-24.973,59.228-151.793,51.513-188.189C211.151,408.386,80.723,327.777,95.47,293.859
					c14.747-33.917,160.52,11.398,192.095-7.085c31.576-18.483,65.76-169.137,102.104-165.125
					c36.344,4.011,39.979,158.838,67.209,183.812c27.23,24.973,178.784,12.473,186.5,48.869
					c7.715,36.396-135.812,86.769-150.559,120.687S537.556,651.863,505.979,670.345z"/>
			</g>
			
				<path id="path1061_8_" sodipodi:type="star" sodipodi:sides="5" sodipodi:r2="34.926189" sodipodi:r1="69.852379" sodipodi:cy="449.90344" sodipodi:cx="297.99036" sodipodi:arg2="1.1519173" sodipodi:arg1="0.52359878" inkscape:rounded="0.19000000" inkscape:randomized="0.0000000" inkscape:flatsided="false" fill="#A9A9A9" stroke="#000000" stroke-width="1.2592" d="
				M500.232,651.359c-30.252,17.33-118.716-98.648-153.535-102.408c-34.819-3.762-144.795,90.783-170.883,67.367
				c-26.088-23.416,56.743-142.324,49.351-176.451c-7.392-34.125-132.347-109.704-118.219-141.505
				c14.128-31.802,153.785,10.687,184.036-6.644s63.001-158.584,97.82-154.823c34.819,3.761,38.301,148.929,64.389,172.344
				s171.283,11.695,178.675,45.82c7.392,34.126-130.113,81.357-144.241,113.158S530.483,634.029,500.232,651.359z"/>
			<g id="path1685_9_" sodipodi:nodetypes="cccccccccccccccccc">
				<g opacity="0.6943">
					<path fill="#A9A9A9" d="M385.027,146.431c-31.188-3.369-66.359,142.516-93.456,158.039
						c-27.097,15.522-161.837-30.266-174.492-1.781c-12.655,28.485,108.906,103.939,115.527,134.506
						c6.621,30.566-69.474,146.76-46.106,167.734c2.726,2.445-22.505,1.432,5.264,1.311
						c-20.121-50.09,53.947-134.941,47.843-163.123c-6.621-30.567-124.364-107.957-111.709-136.442s139.708,19.292,166.804,3.77
						c26.497-15.179,55.104-143.948,85.521-146.161C376.554,158.541,389.867,146.953,385.027,146.431z M456.146,322.206
						c1.028,1.473,2.077,2.883,3.193,3.885c18.752,16.832,106.08,13.463,143.315,27.248
						C587.671,330.746,493.346,334.737,456.146,322.206z M365.757,548.048c27.957,21.037,65.61,61.596,91.907,75.41
						C427.528,601.263,389.543,559.996,365.757,548.048z"/>
				</g>
				<path fill="none" stroke="#000000" stroke-width="1.2592" d="M385.027,146.431c-31.188-3.369-66.359,142.516-93.456,158.039
					c-27.097,15.522-161.837-30.266-174.492-1.781c-12.655,28.485,108.906,103.939,115.527,134.506
					c6.621,30.566-69.474,146.76-46.106,167.734c2.726,2.445-22.505,1.432,5.264,1.311c-20.121-50.09,53.947-134.941,47.843-163.123
					c-6.621-30.567-124.364-107.957-111.709-136.442s139.708,19.292,166.804,3.77c26.497-15.179,55.104-143.948,85.521-146.161
					C376.554,158.541,389.867,146.953,385.027,146.431z M456.146,322.206c1.028,1.473,2.077,2.883,3.193,3.885
					c18.752,16.832,106.08,13.463,143.315,27.248C587.671,330.746,493.346,334.737,456.146,322.206z M365.757,548.048
					c27.957,21.037,65.61,61.596,91.907,75.41C427.528,601.263,389.543,559.996,365.757,548.048z"/>
			</g>
		</g>
	</g>
</g>
</svg>
