<?xml version="1.0" encoding="UTF-8" standalone="no"?>
<!-- Created with Inkscape (http://www.inkscape.org/) -->

<svg
   xmlns:dc="http://purl.org/dc/elements/1.1/"
   xmlns:cc="http://creativecommons.org/ns#"
   xmlns:rdf="http://www.w3.org/1999/02/22-rdf-syntax-ns#"
   xmlns:svg="http://www.w3.org/2000/svg"
   xmlns="http://www.w3.org/2000/svg"
   xmlns:xlink="http://www.w3.org/1999/xlink"
   xmlns:sodipodi="http://sodipodi.sourceforge.net/DTD/sodipodi-0.dtd"
   xmlns:inkscape="http://www.inkscape.org/namespaces/inkscape"
   width="120"
   height="143.2"
   id="svg3249"
   version="1.1"
   inkscape:version="0.48.4 r9939"
   sodipodi:docname="cork-screw-opener.svg">
  <defs
     id="defs3251">
    <inkscape:perspective
       sodipodi:type="inkscape:persp3d"
       inkscape:vp_x="0 : 526.18109 : 1"
       inkscape:vp_y="0 : 1000 : 0"
       inkscape:vp_z="744.09448 : 526.18109 : 1"
       inkscape:persp3d-origin="372.04724 : 350.78739 : 1"
       id="perspective3257" />
    <inkscape:perspective
       id="perspective3267"
       inkscape:persp3d-origin="0.5 : 0.33333333 : 1"
       inkscape:vp_z="1 : 0.5 : 1"
       inkscape:vp_y="0 : 1000 : 0"
       inkscape:vp_x="0 : 0.5 : 1"
       sodipodi:type="inkscape:persp3d" />
    <linearGradient
       id="linearGradient3497">
      <stop
         style="stop-color:#797979;stop-opacity:1;"
         offset="0"
         id="stop3499" />
      <stop
         style="stop-color:#cbd1d1;stop-opacity:1;"
         offset="1"
         id="stop3501" />
    </linearGradient>
    <linearGradient
       id="linearGradient3507">
      <stop
         style="stop-color:#cfcfcf;stop-opacity:1;"
         offset="0"
         id="stop3509" />
      <stop
         style="stop-color:#878787;stop-opacity:1;"
         offset="1"
         id="stop3511" />
    </linearGradient>
    <linearGradient
       inkscape:collect="always"
       xlink:href="#linearGradient3497"
       id="linearGradient3397"
       gradientUnits="userSpaceOnUse"
       gradientTransform="matrix(1.4452764,0,0,0.8028442,545.0305,289.89636)"
       x1="-444.09375"
       y1="1415.824"
       x2="-446.50226"
       y2="1970.5675" />
    <radialGradient
       inkscape:collect="always"
       xlink:href="#linearGradient3507"
       id="radialGradient3399"
       gradientUnits="userSpaceOnUse"
       gradientTransform="matrix(1,0,0,0.9117647,0,95.885968)"
       cx="-1078.8429"
       cy="1086.7074"
       fx="-1078.8429"
       fy="1086.7074"
       r="68.690376" />
  </defs>
  <sodipodi:namedview
     id="base"
     pagecolor="#ffffff"
     bordercolor="#666666"
     borderopacity="1.0"
     inkscape:pageopacity="0.0"
     inkscape:pageshadow="2"
     inkscape:zoom="4"
     inkscape:cx="103.44362"
     inkscape:cy="80.124684"
     inkscape:document-units="px"
     inkscape:current-layer="layer1"
     showgrid="false"
     inkscape:window-width="1366"
     inkscape:window-height="723"
     inkscape:window-x="-2"
     inkscape:window-y="-3"
     inkscape:window-maximized="1" />
  <metadata
     id="metadata3254">
    <rdf:RDF>
      <cc:Work
         rdf:about="">
        <dc:format>image/svg+xml</dc:format>
        <dc:type
           rdf:resource="http://purl.org/dc/dcmitype/StillImage" />
        <dc:title></dc:title>
      </cc:Work>
    </rdf:RDF>
  </metadata>
  <g
     inkscape:label="Layer 1"
     inkscape:groupmode="layer"
     id="layer1"
     transform="translate(-252.19856,-309.71735)">
    <g
       id="g3384"
       transform="matrix(0.71496861,0,0,0.71496861,89.884506,88.279719)">
      <g
         transform="matrix(0.19380383,0,0,0.19380383,305.36307,364.85459)"
         id="g3434">
        <path
           style="fill:none;stroke:#979797;stroke-width:13.5340004;stroke-linecap:round;stroke-linejoin:round;stroke-miterlimit:4;stroke-opacity:1;stroke-dasharray:none"
           d="m 9.769933,-131.61783 -2.86556,354.49495 50.12861,35.693 -71.59451,39.65869 71.59451,53.53949 -71.59451,45.60754 71.59451,47.59064 -71.59451,51.5564 71.59451,41.64178 -71.59451,57.50525 71.59451,35.69293 -64.40187,76.75894 50.037601,34.06694"
           id="path2404"
           sodipodi:nodetypes="ccccccccccccc"
           inkscape:connector-curvature="0" />
        <path
           style="fill:none;stroke:#e6e6e6;stroke-width:16.23399925;stroke-linecap:round;stroke-linejoin:round;stroke-miterlimit:4;stroke-opacity:1;stroke-dasharray:none"
           d="m 22.81992,-129.59186 -2.86556,354.49495 50.12861,35.693 -71.5945103,39.65866 71.5945103,53.5395 -71.5945103,45.6076 71.5945103,47.5906 -71.5945103,51.5564 71.5945103,41.6418 -71.5945103,57.5052 71.5945103,35.693 -64.4018703,76.7589 24.2787113,17.39947"
           id="path3424"
           sodipodi:nodetypes="ccccccccccccc"
           inkscape:connector-curvature="0" />
        <path
           style="fill:none;stroke:#6a6a6a;stroke-width:12.73400021;stroke-linecap:round;stroke-linejoin:round;stroke-miterlimit:4;stroke-opacity:1;stroke-dasharray:none"
           d="m 37.813328,-132.16187 -2.86556,354.49495 50.12861,35.693 -71.59451,39.65866 71.59451,53.5395 -71.59451,45.6076 71.59451,47.5906 -71.59451,51.55645 71.59451,41.6418 -71.59451,57.5052 71.59451,35.693 -64.40187,76.7589 21.75333,30.02641"
           id="path3426"
           sodipodi:nodetypes="ccccccccccccc"
           inkscape:connector-curvature="0" />
      </g>
      <g
         transform="matrix(0.06838957,0,0,0.06838957,325.43178,212.6972)"
         id="g3563">
        <path
           style="fill:url(#linearGradient3397);fill-opacity:1;fill-rule:evenodd;stroke:#48373e;stroke-width:22.35338593;stroke-linecap:butt;stroke-linejoin:round;stroke-miterlimit:4;stroke-opacity:1;stroke-dasharray:none"
           d="m -1051.3931,1482.0462 -8.2586,165.1566 4.0406,159.4748 c 0,0 592.32434,60.3982 852.99023,59.1462 260.665879,-1.2518 860.78333,-59.1462 860.78333,-59.1462 l 0,-166.3562 4.04061,-146.1534 c 0,0 -600.958556,-63.4425 -859.10966,-64.3167 -258.15111,-0.8744 -854.48651,52.1949 -854.48651,52.1949 z"
           id="path3495"
           sodipodi:nodetypes="ccczccczc"
           inkscape:connector-curvature="0" />
        <path
           sodipodi:type="arc"
           style="fill:url(#radialGradient3399);fill-opacity:1;fill-rule:evenodd;stroke:none"
           id="path3505"
           sodipodi:cx="-1078.8429"
           sodipodi:cy="1086.7074"
           sodipodi:rx="68.690376"
           sodipodi:ry="62.629459"
           d="m -1010.1525,1086.7074 c 0,34.5893 -30.7537,62.6295 -68.6904,62.6295 -37.9366,0 -68.6904,-28.0402 -68.6904,-62.6295 0,-34.5893 30.7538,-62.6295 68.6904,-62.6295 37.9367,0 68.6904,28.0402 68.6904,62.6295 z"
           transform="translate(877.82977,574.7768)" />
        <path
           style="fill:none;stroke:#48373e;stroke-width:19.83674431;stroke-linecap:round;stroke-linejoin:miter;stroke-miterlimit:4;stroke-opacity:1;stroke-dasharray:none"
           d="m -957.33016,1478.761 c 0,0 17.7737,115.8819 17.2083,171.8536 -0.5474,54.2137 -21.1702,161.305 -21.1702,161.305"
           id="path3515"
           sodipodi:nodetypes="czz"
           inkscape:connector-curvature="0" />
        <path
           style="fill:none;stroke:#48373e;stroke-width:19.89625359;stroke-linecap:round;stroke-linejoin:miter;stroke-miterlimit:4;stroke-opacity:1;stroke-dasharray:none"
           d="m -884.88468,1471.0976 c 0,0 17.6423,121.2932 17.0811,179.8787 -0.5435,56.7454 -21.0136,168.8374 -21.0136,168.8374"
           id="path3517"
           sodipodi:nodetypes="czz"
           inkscape:connector-curvature="0" />
        <path
           style="fill:none;stroke:#48373e;stroke-width:19.83674431;stroke-linecap:round;stroke-linejoin:miter;stroke-miterlimit:4;stroke-opacity:1;stroke-dasharray:none"
           d="m 381.81329,1471.0445 c 0,0 17.53761,125.7221 16.97977,186.4466 -0.54024,58.8172 -20.88906,175.0021 -20.88906,175.0021"
           id="path3525"
           sodipodi:nodetypes="czz"
           inkscape:connector-curvature="0" />
        <path
           style="fill:none;stroke:#48373e;stroke-width:19.83674431;stroke-linecap:round;stroke-linejoin:miter;stroke-miterlimit:4;stroke-opacity:1;stroke-dasharray:none"
           d="m 454.17511,1474.676 c 0,0 17.63056,121.7853 17.06974,180.6084 -0.54311,56.9756 -20.9997,169.5223 -20.9997,169.5223"
           id="path3527"
           sodipodi:nodetypes="czz"
           inkscape:connector-curvature="0" />
      </g>
    </g>
  </g>
</svg>
