<?xml version="1.0" encoding="UTF-8" standalone="no"?>
<!-- Created with Inkscape (http://www.inkscape.org/) -->

<svg
   xmlns:dc="http://purl.org/dc/elements/1.1/"
   xmlns:cc="http://creativecommons.org/ns#"
   xmlns:rdf="http://www.w3.org/1999/02/22-rdf-syntax-ns#"
   xmlns:svg="http://www.w3.org/2000/svg"
   xmlns="http://www.w3.org/2000/svg"
   version="1.1"
   width="36"
   height="36"
   id="svg3030">
  <defs
     id="defs3032">
    <marker
       refX="0"
       refY="0"
       orient="auto"
       id="Arrow1Send"
       style="overflow:visible">
      <path
         d="M 0,0 5,-5 -12.5,0 5,5 0,0 z"
         transform="matrix(-0.2,0,0,-0.2,-1.2,0)"
         id="path4266"
         style="fill-rule:evenodd;stroke:#000000;stroke-width:1pt" />
    </marker>
    <marker
       refX="0"
       refY="0"
       orient="auto"
       id="Arrow1Sstart"
       style="overflow:visible">
      <path
         d="M 0,0 5,-5 -12.5,0 5,5 0,0 z"
         transform="matrix(0.2,0,0,0.2,1.2,0)"
         id="path4263"
         style="fill-rule:evenodd;stroke:#000000;stroke-width:1pt" />
    </marker>
    <marker
       refX="0"
       refY="0"
       orient="auto"
       id="DotS"
       style="overflow:visible">
      <path
         d="m -2.5,-1 c 0,2.76 -2.24,5 -5,5 -2.76,0 -5,-2.24 -5,-5 0,-2.76 2.24,-5 5,-5 2.76,0 5,2.24 5,5 z"
         transform="matrix(0.2,0,0,0.2,1.48,0.2)"
         id="path4318"
         style="fill-rule:evenodd;stroke:#000000;stroke-width:1pt" />
    </marker>
    <marker
       refX="0"
       refY="0"
       orient="auto"
       id="Arrow1Lend"
       style="overflow:visible">
      <path
         d="M 0,0 5,-5 -12.5,0 5,5 0,0 z"
         transform="matrix(-0.8,0,0,-0.8,-10,0)"
         id="path4254"
         style="fill-rule:evenodd;stroke:#000000;stroke-width:1pt" />
    </marker>
    <marker
       refX="0"
       refY="0"
       orient="auto"
       id="Arrow1Lstart"
       style="overflow:visible">
      <path
         d="M 0,0 5,-5 -12.5,0 5,5 0,0 z"
         transform="matrix(0.8,0,0,0.8,10,0)"
         id="path4251"
         style="fill-rule:evenodd;stroke:#000000;stroke-width:1pt" />
    </marker>
  </defs>
  <metadata
     id="metadata3035">
    <rdf:RDF>
      <cc:Work
         rdf:about="">
        <dc:format>image/svg+xml</dc:format>
        <dc:type
           rdf:resource="http://purl.org/dc/dcmitype/StillImage" />
        <dc:title></dc:title>
      </cc:Work>
    </rdf:RDF>
  </metadata>
  <g
     id="layer2"
     style="display:inline">
    <rect
       width="32.75"
       height="32.625"
       rx="1.6749992"
       ry="2.125"
       x="1.25"
       y="1.2500001"
       id="rect4874"
       style="fill:none;stroke:none" />
    <path
       d="m 3.2999992,1.6250001 29.1500018,0 c 0.927949,0 1.674999,0.94775 1.674999,2.125 l 0,28.1249999 C 34.125,33.05225 33.37795,34 32.450001,34 L 3.2999992,34 C 2.3720497,34 1.625,33.05225 1.625,31.875 l 0,-28.1249999 c 0,-1.17725 0.7470497,-2.125 1.6749992,-2.125 z"
       id="rect6186"
       style="fill:none;stroke:none" />
    <rect
       width="35.027729"
       height="34.829502"
       rx="5.351964"
       ry="5.200048"
       x="0.56694174"
       y="0.5669418"
       id="rect6711"
       style="fill:none;stroke:#c4122e;stroke-opacity:1" />
  </g>
  <g
     transform="translate(0,-12)"
     id="layer1"
     style="display:inline">
    <path
       d="m 19.487473,22.199583 c -1.218532,-3.054636 -2.64743,-5.596045 -6.203589,-5.596045 -1.553596,0 -4.1109687,0.05061 -7.029759,1.059079 -1.0204872,0.384335 -3.310723,1.151984 -3.6642437,1.255753 l 0,0 -0.1055902,0.01647 0,7.130141 0.1055902,0.01664 c 0.9932174,0.332534 3.234399,1.07182 3.6328163,1.226539 2.9018304,0.996418 5.2269854,1.432042 6.8346234,1.432042 3.556159,0 4.748585,-1.723985 6.070712,-4.984459 0,0.0111 0.566563,-3.651495 -0.02594,0.03804 0.211015,-0.182403 0.212511,-0.588985 5.241118,-0.588985 1.055409,-0.01664 1.972966,-0.02496 2.75234,-0.02496 1.651039,0 3.842666,-0.08712 4.735781,-0.02089 0.156975,0.0608 0.332897,1.191555 0.527786,2.910954 0.145996,1.299232 0.303136,2.309914 0.470919,2.309914 0.06484,-0.01126 0.228639,0.08169 0.255745,0.03737 0.173268,-0.315042 0.142005,-2.609841 0.142005,-5.921434 0,-3.305989 0.03128,-5.718311 -0.142005,-6.033353 -0.02711,-0.04433 -0.190896,0.04839 -0.255745,0.03737 -0.167783,0 -0.324923,1.128207 -0.470919,2.422002 -0.194889,1.730268 -0.370811,2.861194 -0.527786,2.910956 -0.952646,0.06623 -3.217435,-0.02089 -4.954945,-0.02089 -0.909409,0 -1.753802,-0.0055 -2.533176,-0.01664 -5.113744,0 -5.383362,0.251745 -5.599863,0.06391"
       id="path3024"
       style="fill:none;stroke:#c4122e;stroke-width:2.05200005;stroke-linecap:butt;stroke-linejoin:miter;stroke-miterlimit:4;stroke-opacity:1;stroke-dasharray:none" />
    <path
       d="m 16.951578,36.692477 c 1.218532,-3.054636 2.720653,-5.789827 6.276812,-5.789827 1.553596,0 3.884405,0.394356 6.803196,1.402829 1.020487,0.384335 3.310723,1.151984 3.664244,1.255753 l 0,0 0.10559,0.01647 0,7.130141 -0.10559,0.01664 c -0.993218,0.332534 -3.2344,1.07182 -3.632817,1.226539 -2.90183,0.996418 -5.226985,1.432042 -6.834623,1.432042 -3.556159,0 -4.748585,-1.723985 -6.070712,-4.984459 0,0.0111 -0.35986,-3.87942 0.02594,0.03804 C 16.972603,38.254242 16.971107,37.84766 11.9425,37.84766 10.887091,37.83102 9.9695339,37.8227 9.1901599,37.8227 c -1.651039,0 -3.842666,-0.08712 -4.735781,-0.02089 -0.156975,0.0608 -0.332897,1.191555 -0.527786,2.910954 -0.145996,1.299232 -0.303136,2.309914 -0.470919,2.309914 -0.06484,-0.01126 -0.228639,0.08169 -0.255745,0.03737 -0.173268,-0.315042 -0.142005,-2.609841 -0.142005,-5.921434 0,-3.305989 -0.03128,-5.718311 0.142005,-6.033353 0.02711,-0.04433 0.190896,0.04839 0.255745,0.03737 0.167783,0 0.324923,1.128207 0.470919,2.422002 0.194889,1.730268 0.370811,2.861194 0.527786,2.910956 0.952646,0.06623 3.217435,-0.02089 4.954945,-0.02089 0.9094091,0 1.7538021,-0.0055 2.5331761,-0.01664 5.113744,0 5.042753,0.02633 5.259254,-0.161505"
       id="path3024-9"
       style="fill:none;stroke:#c4122e;stroke-width:2.05200005;stroke-linecap:butt;stroke-linejoin:miter;stroke-miterlimit:4;stroke-opacity:1;stroke-dasharray:none" />
    <rect
       width="16.875"
       height="18"
       rx="1.6"
       ry="2.625"
       x="-24.5"
       y="-9.375"
       transform="translate(0,12)"
       id="rect3865"
       style="fill:none;stroke-width:2.05200005;stroke-miterlimit:4;stroke-dasharray:none" />
    <rect
       width="34.25"
       height="32.625"
       rx="1.8"
       ry="2.125"
       x="0.875"
       y="2"
       transform="translate(0,12)"
       id="rect3867"
       style="fill:none;stroke:none" />
    <rect
       width="34"
       height="33.5"
       rx="1.8"
       ry="2.125"
       x="0.875"
       y="1.1250001"
       transform="translate(0,12)"
       id="rect3879"
       style="fill:none;stroke:none" />
    <rect
       width="34.625"
       height="34.25"
       rx="1.8"
       ry="2.125"
       x="0.75"
       y="0.87500012"
       transform="translate(0,12)"
       id="rect3881"
       style="fill:none;stroke:none" />
    <path
       d="M 11.75,24.875 -18.778968,20.410304 -39.764215,43.028235 -44.952008,12.613794 -72.947736,-0.3550371 -45.625,-14.6875 l 3.682936,-30.633108 22.074172,21.556491 30.271907,-5.963471 -13.6801472,27.6551069 z"
       transform="translate(0,12)"
       id="path3883"
       style="fill:none;stroke:none" />
    <rect
       width="34.75"
       height="33.5"
       rx="1.6749992"
       ry="2.125"
       x="0.5"
       y="1.0000001"
       transform="translate(0,12)"
       id="rect3885"
       style="fill:none;stroke:none" />
    <path
       d="M 5.0391489,34.773289 C 3.2329954,34.469498 1.6061311,32.932031 1.2334535,31.176721 1.1623722,30.841928 1.1343069,27.060333 1.1350568,17.918469 1.1361975,4.01127 1.1103968,4.7530449 1.6302435,3.6817736 1.9262338,3.0718134 2.9414278,2.040113 3.5801974,1.7001146 3.831796,1.5661961 4.3452866,1.3779461 4.7212877,1.2817812 5.3867223,1.1115917 5.7406779,1.1069359 18.014087,1.1069359 c 8.561447,0 12.777523,0.030327 13.133628,0.094473 1.672489,0.3012677 3.167871,1.6134896 3.719911,3.2642844 0.154319,0.4614667 0.163847,1.1275371 0.187745,13.1256697 0.01676,8.416279 -0.0055,12.846266 -0.06666,13.258252 -0.118587,0.798926 -0.653267,1.893174 -1.203526,2.46307 -0.543033,0.562413 -1.339548,1.070976 -2.062433,1.316836 L 31.141853,34.82709 18.325542,34.83972 C 11.130492,34.84682 5.303053,34.81767 5.0391499,34.77329 l 0,0 z M 25.352415,32.251772 c 1.423261,-0.205434 3.128132,-0.663681 6.054162,-1.627281 1.469141,-0.483819 2.855804,-0.904977 3.081473,-0.935908 l 0.410306,-0.05624 0,-4.485756 0,-4.485755 -0.419844,-0.05924 c -0.230915,-0.03258 -1.652862,-0.472468 -3.159884,-0.977528 -2.856761,-0.95741 -4.31301,-1.348312 -5.877825,-1.57779 -2.067804,-0.303241 -3.220612,-0.260864 -4.448992,0.163544 -1.714395,0.592327 -3.109312,2.011968 -4.277566,4.353386 l -0.40794,0.817592 -5.06708,0.0187 c -2.7868951,0.01028 -5.2744606,0.02023 -5.5279239,0.0221 l -0.4608426,0.0034 -0.2427238,-1.856155 c -0.4146492,-3.170901 -0.511777,-3.36196 -1.7895879,-3.520273 -0.4146101,-0.05137 -0.777246,-0.06999 -0.8058577,-0.04137 -0.028612,0.02861 -0.117236,0.264953 -0.196943,0.525203 -0.1265772,0.413285 -0.1487075,1.205402 -0.174829,6.257697 -0.029356,5.677958 -0.017322,6.013188 0.2520241,7.020451 l 0.091508,0.34221 0.7301007,-0.03832 c 0.8704793,-0.04569 1.1904113,-0.225553 1.4223461,-0.799638 0.083724,-0.207235 0.2715674,-1.251835 0.4174292,-2.321334 0.1458617,-1.069499 0.2790695,-1.993116 0.2960172,-2.052482 0.052267,-0.183085 10.4248806,-0.0018 10.9100846,0.19066 0.07292,0.02893 0.320641,0.442212 0.55049,0.918412 0.807592,1.673158 1.597605,2.698501 2.593424,3.365957 1.443793,0.967712 3.329313,1.228249 6.048474,0.835766 l 0,-4e-6 z M 15.225458,17.548828 c 1.013393,-0.259182 1.847804,-0.733711 2.57105,-1.462156 0.659463,-0.664202 1.433549,-1.85399 1.905672,-2.92906 0.189965,-0.432568 0.337908,-0.650234 0.467151,-0.687308 0.365719,-0.10491 4.289913,-0.221335 7.545788,-0.223872 l 3.290783,-0.0026 0.04441,0.198873 c 0.02443,0.109381 0.145834,0.954595 0.269798,1.878253 0.383304,2.856019 0.50022,3.050165 1.910769,3.172955 l 0.674812,0.05874 0.164877,-0.643577 c 0.152746,-0.59622 0.164878,-1.072848 0.164878,-6.477208 0,-5.3732247 -0.01282,-5.8836391 -0.162439,-6.4672596 L 33.910565,3.331019 33.410092,3.3726255 C 32.278836,3.4666716 31.99682,3.6045418 31.75581,4.1813586 31.68272,4.356287 31.502671,5.3768123 31.355702,6.4491924 31.208732,7.5215726 31.071529,8.4819895 31.050805,8.5834521 l -0.03768,0.1844775 -5.473903,-0.0077 -5.473904,-0.0077 -0.281889,-0.5745243 C 18.818568,6.2114938 17.660779,4.891614 16.299327,4.206127 15.340387,3.7233037 14.534303,3.5735449 12.9097,3.5763839 9.8549492,3.581722 8.2757338,3.8650182 4.8905125,5.0149498 3.5779455,5.4608179 2.2653785,5.8696825 1.973697,5.9235377 l -0.5303301,0.097919 -0.022903,4.4733203 -0.022903,4.47332 0.3764561,0.05955 c 0.2070509,0.03275 1.6492484,0.477194 3.2048833,0.987652 3.4033695,1.116766 5.3071797,1.588951 7.0268737,1.742811 0.832285,0.07446 2.545732,-0.03691 3.219684,-0.209278 z"
       transform="translate(0,12)"
       id="path6713"
       style="fill:#ffffff;fill-opacity:1;stroke:#c4122e;stroke-width:0.06187184;stroke-miterlimit:4;stroke-opacity:1;stroke-dasharray:none" />
    <path
       d="m 21.662261,30.138518 c -1.34194,-0.361353 -2.124886,-1.15733 -3.030833,-3.081277 -0.36039,-0.765356 -0.428506,-0.999027 -0.479084,-1.64351 l -0.05896,-0.7513 0.527226,-1.060661 c 0.877749,-1.765835 1.637447,-2.664327 2.710633,-3.205852 0.581547,-0.293447 1.086277,-0.389263 2.027504,-0.384896 1.76035,0.0082 3.658409,0.433018 7.053902,1.578903 l 2.276,0.768087 0,2.792408 0,2.792408 -2.496971,0.8113 c -2.732095,0.887695 -3.509219,1.098982 -4.971845,1.351758 -1.162928,0.200983 -2.874088,0.216678 -3.557571,0.03263 l 0,0 z"
       transform="translate(0,12)"
       id="path6715"
       style="fill:#ffffff;fill-opacity:1;stroke:#c4122e;stroke-width:0.06187184;stroke-miterlimit:4;stroke-opacity:1;stroke-dasharray:none" />
    <path
       d="M 12.403522,15.632831 C 10.787814,15.502747 9.1595149,15.111044 6.1500464,14.128501 l -2.6295533,-0.858507 0,-2.756854 0,-2.7568547 1.8340582,-0.6345125 C 7.407937,6.4113817 8.1052983,6.2075304 9.1331531,6.0172193 10.914878,5.6873265 13.592937,5.5966958 14.508968,5.8352914 c 1.392894,0.3628029 2.359844,1.3290998 3.33307,3.3308202 l 0.45536,0.9365804 -0.108798,0.694937 c -0.11666,0.745161 -0.667641,2.042507 -1.255221,2.955561 -0.444892,0.691327 -1.202164,1.35681 -1.797362,1.579501 -0.430304,0.160998 -1.868496,0.379914 -2.246359,0.341932 -0.07292,-0.0073 -0.291682,-0.02614 -0.486136,-0.04179 z"
       transform="translate(0,12)"
       id="path6717"
       style="fill:#ffffff;fill-opacity:1;stroke:#c4122e;stroke-width:0.06187184;stroke-miterlimit:4;stroke-opacity:1;stroke-dasharray:none" />
  </g>
</svg>
